{
	"patcher" : 	{
		"fileversion" : 1,
		"appversion" : 		{
			"major" : 8,
			"minor" : 6,
			"revision" : 4,
			"architecture" : "x64",
			"modernui" : 1
		}
,
		"classnamespace" : "dsp.gen",
		"rect" : [ 59.0, 106.0, 1285.0, 865.0 ],
		"bglocked" : 0,
		"openinpresentation" : 0,
		"default_fontsize" : 12.0,
		"default_fontface" : 0,
		"default_fontname" : "Arial",
		"gridonopen" : 1,
		"gridsize" : [ 15.0, 15.0 ],
		"gridsnaponopen" : 1,
		"objectsnaponopen" : 1,
		"statusbarvisible" : 2,
		"toolbarvisible" : 1,
		"lefttoolbarpinned" : 0,
		"toptoolbarpinned" : 0,
		"righttoolbarpinned" : 0,
		"bottomtoolbarpinned" : 0,
		"toolbars_unpinned_last_save" : 0,
		"tallnewobj" : 0,
		"boxanimatetime" : 200,
		"enablehscroll" : 1,
		"enablevscroll" : 1,
		"devicewidth" : 0.0,
		"description" : "",
		"digest" : "",
		"tags" : "",
		"style" : "",
		"subpatcher_template" : "",
		"assistshowspatchername" : 0,
		"boxes" : [ 			{
				"box" : 				{
					"id" : "obj-8",
					"maxclass" : "newobj",
					"numinlets" : 0,
					"numoutlets" : 1,
					"outlettype" : [ "" ],
					"patching_rect" : [ 515.0, 14.0, 28.0, 22.0 ],
					"text" : "in 5"
				}

			}
, 			{
				"box" : 				{
					"id" : "obj-7",
					"maxclass" : "newobj",
					"numinlets" : 0,
					"numoutlets" : 1,
					"outlettype" : [ "" ],
					"patching_rect" : [ 271.5, 14.0, 28.0, 22.0 ],
					"text" : "in 3"
				}

			}
, 			{
				"box" : 				{
					"id" : "obj-6",
					"maxclass" : "newobj",
					"numinlets" : 0,
					"numoutlets" : 1,
					"outlettype" : [ "" ],
					"patching_rect" : [ 401.0, 14.0, 28.0, 22.0 ],
					"text" : "in 4"
				}

			}
, 			{
				"box" : 				{
					"code" : "x = in1;\r\na = in2;\r\nb = in3;\r\nc = in4;\r\nd = in5;\r\n\r\nif (x <= a) {\n  out1 = c;\r\n} else if (x >= b) {\n  out1 =  d;\r\n} else {\n\tout1 = (x - a) / (b - a) * (d - c) + c;\r\n}\r\n",
					"fontface" : 0,
					"fontname" : "<Monospaced>",
					"fontsize" : 12.0,
					"id" : "obj-5",
					"maxclass" : "codebox",
					"numinlets" : 5,
					"numoutlets" : 1,
					"outlettype" : [ "" ],
					"patching_rect" : [ 28.0, 56.0, 515.0, 360.0 ]
				}

			}
, 			{
				"box" : 				{
					"id" : "obj-1",
					"maxclass" : "newobj",
					"numinlets" : 0,
					"numoutlets" : 1,
					"outlettype" : [ "" ],
					"patching_rect" : [ 50.0, 14.0, 28.0, 22.0 ],
					"text" : "in 1"
				}

			}
, 			{
				"box" : 				{
					"id" : "obj-2",
					"maxclass" : "newobj",
					"numinlets" : 0,
					"numoutlets" : 1,
					"outlettype" : [ "" ],
					"patching_rect" : [ 149.0, 14.0, 28.0, 22.0 ],
					"text" : "in 2"
				}

			}
, 			{
				"box" : 				{
					"id" : "obj-4",
					"maxclass" : "newobj",
					"numinlets" : 1,
					"numoutlets" : 0,
					"patching_rect" : [ 28.0, 423.0, 35.0, 22.0 ],
					"text" : "out 1"
				}

			}
 ],
		"lines" : [ 			{
				"patchline" : 				{
					"destination" : [ "obj-5", 0 ],
					"source" : [ "obj-1", 0 ]
				}

			}
, 			{
				"patchline" : 				{
					"destination" : [ "obj-5", 1 ],
					"source" : [ "obj-2", 0 ]
				}

			}
, 			{
				"patchline" : 				{
					"destination" : [ "obj-4", 0 ],
					"source" : [ "obj-5", 0 ]
				}

			}
, 			{
				"patchline" : 				{
					"destination" : [ "obj-5", 3 ],
					"source" : [ "obj-6", 0 ]
				}

			}
, 			{
				"patchline" : 				{
					"destination" : [ "obj-5", 2 ],
					"source" : [ "obj-7", 0 ]
				}

			}
, 			{
				"patchline" : 				{
					"destination" : [ "obj-5", 4 ],
					"source" : [ "obj-8", 0 ]
				}

			}
 ]
	}

}
